<svg id="Capa_1" enable-background="new 0 0 512 512" height="512" viewBox="0 0 512 512" width="512" xmlns="http://www.w3.org/2000/svg"><g><path d="m512 256c0 14.59-1.22 28.9-3.57 42.82-3.48 20.65-9.42 40.45-17.53 59.11l-19.92 7.55c-15.24 5.77-17.48 26.4-3.84 35.31-12.91 18.79-28.26 35.77-45.59 50.48l-103.21 53.08-.02.01c-19.95 4.99-40.83 7.64-62.32 7.64-87.64 0-165-44.04-211.14-111.21 13.64-8.91 11.4-29.54-3.84-35.31l-19.92-7.55c-8.11-18.66-14.05-38.46-17.53-59.11-2.35-13.92-3.57-28.23-3.57-42.82 0-46.22 12.25-89.57 33.68-127 44.12-77.07 127.16-129 222.32-129s178.2 51.93 222.32 129c21.43 37.43 33.68 80.78 33.68 127z" fill="#00beff"/><path d="m512 256c0 36.23-7.53 70.7-21.1 101.93l-19.92 7.55c-15.24 5.77-17.48 26.4-3.84 35.31-12.9 18.79-28.25 35.76-45.59 50.47v.01l-103.23 53.09c-19.95 4.99-40.83 7.64-62.32 7.64-87.64 0-165-44.05-211.14-111.21 13.64-8.91 11.4-29.54-3.84-35.31l-19.92-7.55c-13.57-31.23-21.1-65.7-21.1-101.93 0-46.22 12.25-89.57 33.68-127 39.19 68.46 109.09 117.08 190.91 127.09 10.29 1.26 20.78 1.91 31.41 1.91 4.82 0 9.61-.13 14.37-.4 18.76-1.03 36.98-4.09 54.45-8.96 65.51-18.24 120.43-61.88 153.5-119.64 21.43 37.43 33.68 80.78 33.68 127z" fill="#0af"/><g><g><path d="m136.984 290.879c-1.199 21.94-10.169 43.536-26.928 60.295s-38.355 25.729-60.295 26.928c1.182-21.957 10.161-43.544 26.92-60.303s38.346-25.738 60.303-26.92z" fill="#c4f258"/><path d="m136.984 290.879c-1.199 21.94-10.169 43.536-26.928 60.295s-38.355 25.729-60.295 26.928z" fill="#b1d511"/></g><g><path d="m483.386 290.879c-1.199 21.94-10.169 43.536-26.928 60.295s-38.355 25.729-60.295 26.928c1.182-21.957 10.161-43.544 26.92-60.303s38.347-25.738 60.303-26.92z" fill="#c4f258"/><path d="m483.386 290.879c-1.199 21.94-10.169 43.536-26.928 60.295s-38.355 25.729-60.295 26.928z" fill="#b1d511"/></g><g><path d="m222.627 473.398c-1.199-21.94-10.169-43.536-26.928-60.295s-38.355-25.729-60.295-26.928c1.182 21.957 10.161 43.544 26.92 60.303s38.347 25.738 60.303 26.92z" fill="#c4f258"/><path d="m222.627 473.398c-1.199-21.94-10.169-43.536-26.928-60.295s-38.355-25.729-60.295-26.928z" fill="#b1d511"/></g><path d="m490.9 357.93c-6.56 15.1-14.53 29.44-23.76 42.86h-422.28c-9.23-13.42-17.2-27.76-23.76-42.86z" fill="#a52817"/><path d="m480.36 379.36c-4.05 7.37-8.47 14.52-13.22 21.43h-422.28c-4.75-6.91-9.17-14.06-13.22-21.43z" fill="#7f0000"/><g><path d="m402.47 452.58v13.4c-25.13 17.56-53.55 30.72-84.15 38.38-.78-3.01-1.32-6.08-1.61-9.22l-6.56-69.97z" fill="#2c2164"/><g><path d="m120.834 156.507c0-16.519 15.548-29.911 34.728-29.911h22.236v29.911z" fill="#ffcd00"/><path d="m165.329 153.083c-8.844 0-16.013-7.169-16.013-16.013v-3.824c0-8.844 7.169-16.013 16.013-16.013 8.844 0 16.013 7.169 16.013 16.013v3.824c0 8.844-7.17 16.013-16.013 16.013z" fill="#ffa300"/><path d="m120.834 156.507s15.548-9.869 34.728-9.869h22.236v9.869z" fill="#ff7500"/><path d="m386.349 452.759h-37.05c-47.092 0-90.856-16.488-125.175-44.287h-.015c-29.44-23.829-51.941-55.94-63.669-93.064-2.149-6.804-3.939-13.772-5.342-20.89-1.164-5.879-2.059-11.847-2.671-17.906-.06-.567-.105-1.134-.164-1.701-.149-1.537-.268-3.089-.388-4.641-.358-4.82-.582-9.669-.657-14.548-.03-1.522-.045-3.044-.045-4.566v-86.723c0-39.84 32.857-72.04 72.951-70.951h.015c.269.015.507.015.776.03 36.781 1.403 58.745 32.573 68.131 68.146 1.194 4.506 2.536 9.416 4.014 14.653 4.67 16.563 10.684 36.527 17.488 58.327 12.803 41.078 28.381 88.663 42.914 132.307 10.669 32.066 20.785 61.998 28.828 85.633.014.061.044.121.059.181z" fill="#ffcd00"/><path d="m357.579 367.3c2.735 8.243-7.563 14.504-13.62 8.279l-105.208-107.769c-9.377-9.605-14.626-22.497-14.626-35.92v-138.377l.015-.03c.269.015.507.015.776.03 36.781 1.403 58.745 32.573 68.131 68.146 1.194 4.506 2.536 9.416 4.014 14.653 4.67 16.563 10.684 36.527 17.488 58.327 12.803 41.078 28.381 88.663 42.914 132.307.037.118.076.236.116.354z" fill="#ffa300"/><path d="m297.06 176.311h-28.082c-15.578 0-30.708 2.775-44.839 7.968-11.862 4.342-23.009 10.4-33.081 17.936-16.443 12.295-39.885.403-39.885-20.129v-17.652c0-39.84 32.857-72.04 72.951-70.951.268.015.522.015.791.03 36.781 1.403 58.745 32.573 68.131 68.146 1.194 4.506 2.536 9.415 4.014 14.652z" fill="#e7ea00"/><circle cx="187.992" cy="143.864" fill="#2c2164" r="13.598"/><path d="m135.997 141.128v-2.449c0-4.372 6.578-4.824 6.984-.471.02.217.031.437.031.659 0 1.569-.515 3.017-1.385 4.186-1.79 2.401-5.63 1.07-5.63-1.925z" fill="#ffa300"/></g><path d="m297.06 176.311h-28.082c-15.578 0-30.708 2.775-44.839 7.968-.015-.552-.015-1.104-.015-1.656v-89.14c.268.015.522.015.791.03 36.781 1.403 58.745 32.573 68.131 68.146 1.194 4.506 2.536 9.415 4.014 14.652z" fill="#ffcd00"/><g><path d="m421.55 451.26v.01h-4.86c-8.74 0-15.82 7.08-15.82 15.82-1.81-.05-3.6-.12-5.4-.23-70.84-4.08-132.56-51.12-155.28-118.3-3.61-10.62-6.23-21.73-7.76-33.25l-7.84-59.22-.04-.29c-3.64-27.51 16.25-52.72 44.15-55.34 23.72-2.22 40.94 14.64 50.97 36.12.68 1.46 1.32 2.92 1.94 4.42.98 2.39 2.05 4.94 3.21 7.64 10.73 25.12 28.5 62.9 46.34 99.92 4.48 9.25 8.94 18.46 13.31 27.41 15.15 31.12 29.04 59.16 37.08 75.29z" fill="#57ad00"/><path d="m421.55 451.26v.01h-4.86c-4.02 0-7.68 1.49-10.47 3.96-75.28-39.27-126.17-113.46-135.85-197.63-1.1-9.65-1.67-19.43-1.67-29.31v-27.83c23.72-2.22 40.94 14.64 50.97 36.12.68 1.46 1.32 2.92 1.94 4.42.98 2.39 2.05 4.94 3.21 7.64 10.73 25.12 28.5 62.9 46.34 99.92 4.48 9.25 8.94 18.46 13.31 27.41 15.15 31.12 29.04 59.16 37.08 75.29z" fill="#519305"/><path d="m421.55 451.26c-.01.01-.01.01 0 .01-6.12 5.19-12.49 10.1-19.08 14.71-.54.38-1.08.75-1.62 1.12-73.09-1.94-137.36-49.68-160.66-118.54h130.97c4.48 9.25 8.94 18.46 13.31 27.41 15.15 31.12 29.04 59.16 37.08 75.29z" fill="#005b79"/><path d="m421.55 451.26c-.01.01-.01.01 0 .01-2.91 2.47-5.88 4.87-8.9 7.21-49.45-24.05-88.93-62.92-113.94-109.92h72.45c4.48 9.25 8.94 18.46 13.31 27.41 15.15 31.12 29.04 59.16 37.08 75.29z" fill="#004c60"/></g><g fill="#ffa300"><path d="m205.696 266.168c0 2.895-1.164 5.491-3.059 7.386s-4.491 3.059-7.386 3.059h-42.824c-.06-.567-.105-1.134-.164-1.701-.149-1.537-.268-3.089-.388-4.641-.358-4.82-.582-9.669-.657-14.548h44.033c5.775 0 10.445 4.67 10.445 10.445z"/><path d="m205.696 304.963c0 2.895-1.164 5.491-3.059 7.386s-4.491 3.059-7.386 3.059h-34.811c-2.149-6.804-3.939-13.772-5.342-20.89h40.153c5.775 0 10.445 4.67 10.445 10.445z"/></g></g><g><path d="m473.058 206.548c0-.084.006-.166.006-.25 0-15.339-12.434-27.773-27.773-27.773-3.644 0-7.121.709-10.309 1.985-6.159-11.033-17.943-18.499-31.476-18.499-17.574 0-32.202 12.586-35.381 29.234-.948-.136-1.915-.21-2.901-.21-9.555 0-17.561 6.615-19.701 15.513z" fill="#fff"/><path d="m445.96 206.548c0-.048.004-.096.004-.144 0-8.82-7.15-15.97-15.97-15.97-2.095 0-4.095.408-5.928 1.141-3.541-6.344-10.317-10.637-18.099-10.637-10.106 0-18.517 7.237-20.345 16.81-.545-.078-1.101-.121-1.668-.121-5.495 0-10.098 3.803-11.328 8.92h73.334z" fill="#dfebff"/></g><g><path d="m327.623 65.864c.002-.002.003-.003.005-.005.133-15.451-12.352-28.018-27.772-28.018-3.644 0-7.121.709-10.309 1.985-6.159-11.033-17.943-18.499-31.476-18.499-17.574 0-32.202 12.586-35.381 29.234-.948-.136-1.915-.21-2.901-.21-9.555 0-17.561 6.614-19.701 15.513z" fill="#fff"/><path d="m300.525 65.864c.001-.001.002-.002.003-.003.077-8.885-7.102-16.111-15.969-16.111-2.095 0-4.095.408-5.928 1.141-3.541-6.344-10.318-10.637-18.099-10.637-10.106 0-18.517 7.237-20.345 16.81-.545-.078-1.101-.121-1.668-.121-5.494 0-10.098 3.804-11.328 8.92h73.334z" fill="#dfebff"/></g><g><path d="m20.596 238.67c-.001-.002-.003-.003-.004-.004-.105-12.168 9.727-22.064 21.871-22.064 2.87 0 5.607.558 8.118 1.563 4.85-8.689 14.13-14.568 24.787-14.568 13.84 0 25.359 9.911 27.863 23.022.746-.107 1.509-.165 2.284-.165 7.525 0 13.829 5.209 15.514 12.217h-100.433z" fill="#fff"/><path d="m41.936 238.67c-.001-.001-.001-.001-.002-.002-.061-6.997 5.593-12.688 12.576-12.688 1.65 0 3.225.321 4.668.899 2.789-4.996 8.125-8.377 14.253-8.377 7.958 0 14.582 5.699 16.022 13.238.429-.061.867-.095 1.313-.095 4.327 0 7.952 2.995 8.921 7.025z" fill="#dfebff"/></g></g></g></svg>